Coordinates
version=1
nRows=14
nColumns=24
inDegrees=yes

Units are S.I. units (second, meters, Newtons, ...)
Angles are in degrees.

endheader
time	pelvis_tilt	pelvis_list	pelvis_rotation	pelvis_tx	pelvis_ty	pelvis_tz	hip_flexion_r	hip_adduction_r	hip_rotation_r	knee_angle_r	ankle_angle_r	subtalar_angle_r	mtp_angle_r	hip_flexion_l	hip_adduction_l	hip_rotation_l	knee_angle_l	ankle_angle_l	subtalar_angle_l	mtp_angle_l	lumbar_extension	lumbar_bending	lumbar_rotation
      0.92000000	     10.39534831	      1.55381515	      1.72046496	      0.20859042	      1.03778852	      0.03309881	    -11.63204169	      3.79656183	     -7.15166806	     -2.39820478	      6.77293921	      0.00000000	      0.00000000	      4.24309652	     -3.58649290	     -6.13975195	    -65.95793132	     -3.95728637	      0.00000000	      0.00000000	    -19.46383072	     -3.27641752	      1.23366154
      0.93000000	     10.44336873	      1.72810223	      1.36161411	      0.20803030	      1.03879429	      0.03399593	    -12.30192782	      3.58783954	     -6.66155039	     -2.10287504	      6.70544168	      0.00000000	      0.00000000	      5.11515868	     -3.32863412	     -6.11645771	    -66.22115229	     -2.73003573	      0.00000000	      0.00000000	    -19.51138491	     -3.54105825	      1.59093082
      0.94000000	     10.49498413	      1.90428383	      1.02206876	      0.20721641	      1.03983262	      0.03486097	    -12.90132644	      3.37023632	     -6.21923670	     -1.91045939	      6.64798726	      0.00000000	      0.00000000	      5.97317642	     -3.05252144	     -6.07083054	    -66.27861553	     -1.71308486	      0.00000000	      0.00000000	    -19.59641886	     -3.80525058	      1.88051270
      0.95000000	     10.51574015	      2.09687675	      0.73478318	      0.20622581	      1.04081245	      0.03560622	    -13.43508580	      3.13424011	     -5.79764967	     -1.76049012	      6.63111380	      0.00000000	      0.00000000	      6.84465048	     -2.71599790	     -5.94014157	    -66.12515400	     -0.82543939	      0.00000000	      0.00000000	    -19.67218153	     -4.07045021	      2.07652744
      0.96000000	     10.50425564	      2.28771439	      0.45040797	      0.20514719	      1.04172909	      0.03629514	    -13.90874044	      2.89543771	     -5.42688646	     -1.62612207	      6.61126473	      0.00000000	      0.00000000	      7.70248591	     -2.33728713	     -5.77087906	    -65.74071556	      0.03643818	      0.00000000	      0.00000000	    -19.72249575	     -4.33091221	      2.25187416
      0.97000000	     10.46133881	      2.47444830	      0.21370423	      0.20392181	      1.04255679	      0.03686737	    -14.32905567	      2.66265716	     -5.11279502	     -1.50720152	      6.60226598	      0.00000000	      0.00000000	      8.55356369	     -1.94004563	     -5.55347173	    -65.14481545	      0.82437750	      0.00000000	      0.00000000	    -19.76243268	     -4.57113648	      2.36479763
      0.98000000	     10.39296023	      2.63108226	      0.02039279	      0.20260594	      1.04328904	      0.03736605	    -14.70154041	      2.47024920	     -4.86337461	     -1.40567440	      6.60727266	      0.00000000	      0.00000000	      9.39204903	     -1.54300357	     -5.25846838	    -64.33684931	      1.51611995	      0.00000000	      0.00000000	    -19.78696015	     -4.76581098	      2.44602517
      0.99000000	     10.29935117	      2.74896204	     -0.13287216	      0.20120429	      1.04391981	      0.03776906	    -15.03211389	      2.32377219	     -4.69740501	     -1.31626678	      6.62406952	      0.00000000	      0.00000000	     10.20670068	     -1.17963243	     -4.93861553	    -63.30854026	      2.13483397	      0.00000000	      0.00000000	    -19.79842476	     -4.91079721	      2.51867590
      1.00000000	     10.14268665	      2.94376277	     -0.26104629	      0.19979938	      1.04435290	      0.03812665	    -15.31825328	      2.09616669	     -4.60509135	     -1.16910855	      6.64263637	      0.00000000	      0.00000000	     11.01238118	     -0.71162936	     -4.58518270	    -62.05870241	      2.92074918	      0.00000000	      0.00000000	    -19.74233700	     -5.14153782	      2.52420056
      1.01000000	      9.98877354	      3.04928346	     -0.34243530	      0.19831161	      1.04469437	      0.03838776	    -15.57801447	      1.97132971	     -4.55873476	     -1.07156732	      6.68142062	      0.00000000	      0.00000000	     11.75823549	     -0.34146969	     -4.19436887	    -60.59450515	      3.52075208	      0.00000000	      0.00000000	    -19.70573340	     -5.25845071	      2.54070194
      1.02000000	      9.87288453	      2.94222443	     -0.40770043	      0.19668079	      1.04497187	      0.03878132	    -15.82225445	      2.08697030	     -4.53530806	     -1.06990370	      6.74140149	      0.00000000	      0.00000000	     12.42159245	     -0.28802074	     -3.89448633	    -58.96080057	      3.76428972	      0.00000000	      0.00000000	    -19.73177404	     -5.15517590	      2.62917732
      1.03000000	      9.61640205	      3.07896250	     -0.45739109	      0.19519795	      1.04491814	      0.03889857	    -15.99467915	      1.91990581	     -4.50507034	     -0.93348793	      6.78123582	      0.00000000	      0.00000000	     13.10221334	      0.15575320	     -3.40379024	    -57.03801294	      4.47697276	      0.00000000	      0.00000000	    -19.57951984	     -5.30433057	      2.65609470
      1.04000000	      9.44254411	      2.91710848	     -0.46628601	      0.19358157	      1.04483277	      0.03924378	    -16.19030991	      2.10640273	     -4.53884744	     -0.92302885	      6.86436471	      0.00000000	      0.00000000	     13.66716874	      0.10470568	     -3.16352252	    -54.99622424	      4.67370741	      0.00000000	      0.00000000	    -19.54563976	     -5.13817449	      2.73109211
      1.05000000	      9.21653435	      2.78074723	     -0.50101989	      0.19197993	      1.04456034	      0.03953195	    -16.33245570	      2.24808231	     -4.55669182	     -0.89456705	      6.93398436	      0.00000000	      0.00000000	     14.18201475	      0.11918354	     -2.84837657	    -52.72843695	      4.93394569	      0.00000000	      0.00000000	    -19.45145515	     -5.00649218	      2.83885680
